<svg xmlns="http://www.w3.org/2000/svg" viewBox="0 0 122.57 127"><defs><style>.cls-1{fill:#05aeb6;fill-rule:evenodd;}</style></defs><title>Asset 1</title><g id="Layer_2" data-name="Layer 2"><g id="Layer_1-2" data-name="Layer 1"><path class="cls-1" d="M44.7,82.38l16.6,9.74q19.73-11.53,39.15-23V23L61.27,0c-1.06.63-2.12,1.24-3.15,1.86L51.63,5.67v5.67l.43-.26h0c3.17-1.86,6.16-3.62,9.21-5.38l9.25,5.43h0l25,14.69V66.33L86.3,71.77h0l-.08,0,0,0L61.27,86.45,38.73,73.24h0l0,0-.22-.13L26.85,66.27V20.21l-2.67,1.56L22.12,23V69.15q11.26,6.59,22.55,13.22h0Zm7.85-6.91,0,0L61.3,80.6l10.78-6.32L90.61,63.42V28.76L76,20.17,61.3,11.57,46.54,20.21V8.67l-3.25,1.92h0l-1.53.9V28.7C48.41,24.81,54.87,21,61.3,17.27l6.63,3.89,0,0h0L85.9,31.69V60.54L72.62,68.33h0L61.3,75c-8.21-4.83-16.39-9.64-24.66-14.48v-46c-1.75,1-3.27,1.9-4.73,2.76V63.36q10.29,6.06,20.61,12.1h0ZM76.05,40.3V37.42h0L61.3,28.76,54,33.06h0l-7.32,4.29V54.81L61.3,63.42l6.76-4h0q4-2.33,8-4.7V51.87l4.8-2.81V57.6L68.48,64.86h0l0,0-7.17,4.21L56,66h0L41.69,57.6v-23L58,25l3.3-1.93q9.78,5.75,19.61,11.48v8.55Zm-70,73.39H20.1l2.07-2.77h0l1.61-2.15-3.92,0h0c-2.5,0-4.9,0-7.3,0l-1.58,0h0a43.56,43.56,0,0,0-5.94.36,5,5,0,0,0-4.44,5.37c.08,2.7,1.72,4.6,4.79,4.87,2.51.18,5,.2,7.55.22h0c1.26,0,2.52,0,3.77,0a8.54,8.54,0,0,1,1.47.18h0L19,120c0,.43,0,.79-.08,1.16h0c0,.33,0,.65-.06,1H3.65C2.4,123.84,1.31,125.27,0,127H5.65c3.57,0,7,0,10.48,0a17.61,17.61,0,0,0,3.33-.27c3.39-.65,5.14-2.85,4.91-6-.21-2.79-2.05-4.37-5.52-4.49-2.14-.08-4.27-.11-6.39-.13h0L8.21,116a9.9,9.9,0,0,1-1.41-.14h0l-.75-.1Zm62.37-74.9h0L71,40.3v4.6c-3.42-1.51-6.57-2.91-10-4.42l-1,.58h0l-2,1.16c4.56,1.34,8.73,2.58,13,3.86v5.79l-4.46,2.61h0l-5.2,3-6.22-3.65-3.48-2V47.54c.53.17,1,.32,1.57.47h0a25.43,25.43,0,0,1,3.48,1.19,29.14,29.14,0,0,1,3.12,1.73c.5.31,1,.62,1.53.92l2.07-1.21,1.29-.75c-4.56-1.37-8.77-2.61-13-3.86V40.27c2.63-1.52,5.4-3.16,8.24-4.83l1.43-.84Zm54.15,83.6H107.43c0-1,0-1.78,0-2.64h11l1.39-1.85h0l1.74-2.3H107.43v-2.14H119l.93-1.21h0c.84-1.1,1.67-2.19,2.54-3.37H101.94v18h17.24l2-2.61Zm-45.08,4.42H57c.82-1.13,1.56-2.17,2.3-3.22l.89-1.26H67.9c-1.72-2.58-3.33-5-5.05-7.54-1.83,2.64-3.63,5.2-5.41,7.74h0l-3,4.29H48.09c.13-.2.23-.39.33-.56a6.16,6.16,0,0,1,.37-.63q1.51-2.15,3-4.31c2.42-3.47,4.84-7,7.28-10.41s5.38-3.41,7.74,0q5,7.29,9.91,14.57h0l.15.28C77.07,126.12,77.25,126.43,77.49,126.81Zm-45.2.06v-4.78c1.37,0,2.72,0,4.05,0h0c2.61,0,5.15.09,7.66,0,4-.27,6.46-2.85,6.61-6.23a6.33,6.33,0,0,0-6.11-6.68,94.55,94.55,0,0,0-9.83-.14h0c-1.45,0-2.92,0-4.4,0l-1.62,2.12h0l-1.74,2.27H32c3.55,0,7.1,0,10.65.13.85,0,2.45.33,2.45,1.93s-1.6,2-2.48,2.08c-2.26.17-4.55.14-6.83.11l-2.64,0H26.91v9.17Zm67.46-18.1-1.84,2.45-1.67,2.24H87.3c-3.15,0-5.34,1.8-5.4,4.39s2.1,4.45,5.29,4.51c3,0,6,0,9.23,0h3.3c-1.26,1.66-2.31,3-3.3,4.39-1.23,0-2.45,0-3.67.07a56.26,56.26,0,0,1-8-.16,9.16,9.16,0,0,1-8.32-9c0-4.42,3.18-7.75,8.5-8.73a14,14,0,0,1,2.74-.18C91.57,108.77,95.48,108.77,99.75,108.77Zm-69.69-2.69h0l1,.16c.43-.07.86-.12,1.28-.17h0a15,15,0,0,0,2.4-.42A4.2,4.2,0,0,0,38,101.17c0-2.23-1-4-3.21-4.3a28.22,28.22,0,0,0-7.57.11c-2.13.33-2.92,2.14-2.89,4.34s.93,3.62,2.95,4.21A18,18,0,0,0,30.06,106.08Zm1.5-2.35h-.44c-3.19,0-4.33-.83-3.86-3A2.65,2.65,0,0,1,28.75,99a12.62,12.62,0,0,1,3.74-.27c1.52.06,2.78.54,2.75,2.5s-1.32,2.31-2.81,2.46C32.14,103.74,31.85,103.73,31.56,103.73ZM93.09,106H89.67l1.64-2.3h0c1.71-2.39,3.33-4.67,5.11-6.81.32-.42,2.34-.15,2.8.44,1.47,1.89,2.82,3.87,4.2,5.92h0c.59.88,1.2,1.78,1.82,2.68H94.58l.71-1h0c.29-.43.58-.85.9-1.29h4l-.41-.62c-.79-1.18-1.47-2.21-2.22-3.35-.56.78-1.09,1.54-1.62,2.29h0Zm20.74,0v-5.55c1.06.95,2,1.84,3,2.7h0c.93.85,1.82,1.67,2.72,2.48,1.23,1.07,2.72.59,2.78-1,.08-1.86.06-3.72,0-5.58h0c0-.8,0-1.61,0-2.42h-2.66v5.46c-.71-.64-1.39-1.25-2-1.85-1.26-1.15-2.45-2.23-3.66-3.29-1-.89-2.4-1-2.57.51a46.28,46.28,0,0,0-.12,6h0c0,.83,0,1.66,0,2.48ZM85.7,96.57h2.77V106H85.75v-3.56H80.09v3.53H77.31V96.6H80v3.17h5.7C85.7,98.68,85.7,97.67,85.7,96.57ZM60,99.51c1.22-.92,2.41-1.84,3.64-2.76-2.94-1.12-4.67.42-6.48,2-.55.49-1.11,1-1.7,1.41V96.54H52.8v9.32h2.8V102c.59.45,1.13,1,1.67,1.45,1.91,1.77,3.73,3.45,6.81,2.23-2-1.57-3.92-3.15-5.91-4.78Zm15.32-2.09h0l-1.13,1.49c-.47,0-.94,0-1.42,0A10.23,10.23,0,0,0,69.6,99c-1.08.3-2.54,1.34-2.72,2.26-.32,1.63,1.2,2.25,2.72,2.28,1.32,0,2.65,0,4.08,0h2.37l-.91,1.27h0l-.92,1.28c-.68,0-1.37-.07-2.06-.09h0c-1.37-.05-2.76-.09-4.12-.27a4.77,4.77,0,0,1-4.12-4.63c0-2.26,1.72-4.07,4.27-4.48.61-.09,1.25-.15,1.87-.18h6Zm-25.77,8.67c.65-.83,1.17-1.51,1.93-2.55-.74,0-1.45,0-2.14,0a23.3,23.3,0,0,1-4.61-.16A3.68,3.68,0,0,1,43,102.11a10.66,10.66,0,0,0-.83-.82,10.67,10.67,0,0,0,.8-.84h0A4.23,4.23,0,0,1,44.79,99a11.53,11.53,0,0,1,3.38-.14c.49,0,1,0,1.47,0,.59-.83,1.08-1.51,1.67-2.31-.84,0-1.65,0-2.44,0a52.31,52.31,0,0,0-5.34.09A4.47,4.47,0,0,0,39.3,101a4.72,4.72,0,0,0,4.12,4.78,33.24,33.24,0,0,0,4.11.27Zm-35.7-9.55h2.69v7H23.9l-.9,1.2h0L22.06,106H13.88Zm92.68,0v9.35h2.66V96.57ZM76,44.1c.16.1.33.19.5.28h0l1,.55-.69.42c-.26.15-.49.3-.75.44l-.34-.2h0L74.59,45l.94-.57Zm1.33,3.31.45-.25c0-.33-.06-.61-.09-.91h0c0-.23,0-.46-.06-.73l-.77.45h0l-.57.33c0,.13,0,.26,0,.39,0,.39,0,.78.07,1.27Zm-3-.16V45.58c.5.27.91.48,1.34.69v1.66Zm-70,49.26c1.62,0,3.21-.06,4.8.06,2.89.24,3.68,2.14,2.39,3.94,1,0,.79,3.09.47,4s-1.55,1.28-2.4,1.34c-2.16.12-4.32.1-6.54.08l-2.72,0V99.8h9c0-.12,0-.24,0-.37s0-.25-.05-.37h-9c.64-.84,1.1-1.46,1.54-2,.12-.16.24-.31.35-.47C2.83,96.54,3.58,96.52,4.32,96.51Zm-1.14,6.88H7.83c.47,0,1.32,0,1.32-.8,0-.47-6.05-.35-6.05-.35S3.16,103.13,3.18,103.39Z"/></g></g></svg>