<?xml version="1.0" encoding="utf-8"?>
<!-- Generator: Adobe Illustrator 25.3.1, SVG Export Plug-In . SVG Version: 6.00 Build 0)  -->
<svg version="1.1" id="Layer_1" xmlns="http://www.w3.org/2000/svg" xmlns:xlink="http://www.w3.org/1999/xlink" x="0px" y="0px"
	 viewBox="0 0 27.4 27.4" style="enable-background:new 0 0 27.4 27.4;" xml:space="preserve">
<style type="text/css">
	.st0{fill:#1B75BC;}
	.st1{fill:#FFFFFF;}
</style>
<path class="st0" d="M24.4,0H3C1.3,0,0,1.3,0,3v21.4c0,1.7,1.3,3,3,3h21.4c1.7,0,3-1.3,3-3V3C27.4,1.3,26,0,24.4,0z"/>
<g>
	<path class="st1" d="M18.3,3.7H9.1C6,3.7,3.4,6.2,3.4,9.3v9.2c0,3.1,2.5,5.7,5.7,5.7h9.2c3.1,0,5.7-2.5,5.7-5.7V9.3
		C24,6.2,21.4,3.7,18.3,3.7z M22.2,18.6c0,2.1-1.7,3.9-3.9,3.9H9.1c-2.1,0-3.9-1.7-3.9-3.9V9.3c0-2.1,1.7-3.9,3.9-3.9h9.2
		c2.1,0,3.9,1.7,3.9,3.9L22.2,18.6L22.2,18.6z"/>
	<path class="st1" d="M13.7,8.7c-2.9,0-5.3,2.4-5.3,5.3c0,2.9,2.4,5.3,5.3,5.3S19,16.9,19,14C19,11,16.6,8.7,13.7,8.7z M13.7,17.4
		c-1.9,0-3.5-1.6-3.5-3.5c0-1.9,1.6-3.5,3.5-3.5s3.5,1.6,3.5,3.5C17.2,15.9,15.6,17.4,13.7,17.4z"/>
	<path class="st1" d="M19.2,7.1c-0.4,0-0.7,0.1-0.9,0.4c-0.2,0.2-0.4,0.6-0.4,0.9c0,0.4,0.1,0.7,0.4,0.9c0.2,0.2,0.6,0.4,0.9,0.4
		c0.4,0,0.7-0.1,0.9-0.4c0.2-0.2,0.4-0.6,0.4-0.9c0-0.4-0.1-0.7-0.4-0.9C19.9,7.2,19.6,7.1,19.2,7.1z"/>
</g>
</svg>
