<?xml version="1.0" encoding="utf-8"?>
<!-- Generator: Adobe Illustrator 22.0.1, SVG Export Plug-In . SVG Version: 6.00 Build 0)  -->
<svg version="1.1" id="Layer_1" xmlns="http://www.w3.org/2000/svg" xmlns:xlink="http://www.w3.org/1999/xlink" x="0px" y="0px"
	 viewBox="0 0 288 284.8" style="enable-background:new 0 0 288 284.8;" xml:space="preserve">
<style type="text/css">
	.st0{fill:#0CAC96;}
	.st1{fill:#E3A356;}
	.st2{clip-path:url(#SVGID_2_);fill:url(#SVGID_3_);}
	.st3{clip-path:url(#SVGID_5_);fill:url(#SVGID_6_);}
	.st4{clip-path:url(#SVGID_8_);fill:url(#SVGID_9_);}
	.st5{clip-path:url(#SVGID_11_);fill:url(#SVGID_12_);}
	.st6{clip-path:url(#SVGID_14_);fill:url(#SVGID_15_);}
	.st7{clip-path:url(#SVGID_17_);fill:url(#SVGID_18_);}
	.st8{fill:#FFFFFF;}
	.st9{clip-path:url(#SVGID_20_);fill:#FFFFFF;}
	.st10{clip-path:url(#SVGID_22_);fill:#FFFFFF;}
	.st11{fill:#3D3D3D;}
	.st12{clip-path:url(#SVGID_24_);fill:#3D3D3D;}
	.st13{clip-path:url(#SVGID_26_);fill:#3D3D3D;}
</style>
<g>
	<path class="st0" d="M131.4,97.3C123,75,112.5,53.6,100,33.3c-3.6-5.9-8.6-8.7-15.5-8.6c-6.4,0.1-12.8,0.1-19.2,0.1
		c-7,0-14,0.1-20.9,0.1C38,25,29.3,30.5,30,39.3c0.3,3.8,0.2,7.7,0.1,11.5c-0.2,5.9,2.4,9.9,7.5,12.8C60,76.2,77.9,93.9,94,113.7
		c11.7,14.5,22.2,29.8,30.4,46.7c0.5,1,0.6,2.4,2.2,2.2c1.2-0.1,1.5-1.1,1.8-2.1c1.7-6.5,2.9-13,3.5-19.7
		c1.2-13.1,0.4-26.2,0.4-39.3C132.1,100.1,131.9,98.6,131.4,97.3"/>
	<path class="st0" d="M184.4,73c2.6-11.1,4.4-22.3,5-33.7c0.3-5.7-2.3-12.2-8.8-13.9c-6.6-1.7-13.4-1.4-19.9-0.5
		c-10,1.4-12.9,5.3-13,15.5c-0.1,6.4-0.3,12.8-0.5,19.2c-0.5,19.6-0.5,39.3-0.6,59c0,5.1-0.7,9.5-0.8,14.7
		c-0.1,7.8-0.1,8.7-0.4,16.2c8.3-9.2,14.8-18.5,20.5-28.3C174.6,106.1,180.5,89.9,184.4,73"/>
	<path class="st1" d="M255.4,155.5c-6.2-2.8-11-1.7-15.8,3.4c-16.9,18.3-35.1,35.2-54.5,50.8c-0.9,0.7-2.6,1.2-2.1,2.8
		c0.3,1,2.2,0.9,3.4,0.9c10.4,0,20.8-0.1,31.2-0.2c10.3-0.1,20.5-0.2,30.8-0.2c9.8,0,15.2-4.9,14.7-14.9
		c-0.4-10.1-0.3-20.2-0.3-30.3C262.8,162.1,260.5,157.8,255.4,155.5"/>
	<path class="st0" d="M32.5,208c3,5.3,7.8,6.2,13.1,6.2c12.5,0,25.1-0.1,37.6-0.2c12.3-0.1,24.5-0.1,36.8-0.3c2,0,5.9,0.1,5.8-1.1
		c-0.4-2.8-1.6-4.9-3.7-6.7c-0.5-0.4-1.2-0.7-1.9-1c-11-4.9-22-9.9-33-14.8C74.5,184.3,62.4,177,50,170.4c-8.8-4.7-18.7,1.1-18.9,11
		c-0.2,7,0,14,0.1,21C31.3,204.3,31.5,206.1,32.5,208"/>
	<path class="st1" d="M130.9,19.2c-4.1-1.7-11.4,0.4-14.8,4.3c-3.2,3.6-3.9,10.6-1.5,14.9C121.3,50,129,61,135,73.7
		c0.5-0.8,0.8-1,0.8-1.3c0-13.6,2.5-26.9,4.1-40.3C140.6,26.2,137.1,21.7,130.9,19.2"/>
	<path class="st1" d="M36.4,144.8c8.4,4.4,17.1,8.2,26,11.5c0.8,0.3,1.7,0.6,2.4-0.1c0.9-0.8,0.4-1.8,0-2.7c-1.5-3.4-2.8-6.8-4-10.4
		l-0.2-0.7c0,0-0.1-0.1-0.1-0.4c-0.4-1.1-1.4-4.4-2.4-8.4c-0.5-1.7-0.9-3.5-1.3-5.3c-0.3-1.2-0.5-2.4-0.7-3.5v0
		c-1.1-5.6-1.4-10.4,0.5-10.9c0.3,0.9,0.6,2.3,1.1,4.2c0,0.3,0.1,0.6,0.2,0.9c0,0,0,0,0,0c1.3,5.5,3.6,13.9,8.8,21.5
		c0,0,0,0.1,0.1,0.1c1.7,3.8,3.5,7.6,5.6,11.4c3.4,6.3,7.7,10.8,15.1,13.3c7.2,2.5,13.3,4.8,20,6.9c2.9,0.9,6.8,3.2,8.6,1.2
		c1.9-2.3-1.2-5.8-2.4-8.5c-7.5-17.1-17.4-32.8-28.2-47.9c-9.7-13.5-20.1-26.5-31.9-38.3c-3.8-3.8-8.3-5.7-13.6-4
		c-5.8,1.9-9.3,5.9-9.7,12.2c-0.9,16.5-0.9,33,0.5,49.5C31,140.1,33.1,143.1,36.4,144.8"/>
</g>
<g>
	<defs>
		<path id="SVGID_13_" d="M178,236.3c-0.3-0.9-0.8-2-1.7-3.3L178,236.3z"/>
	</defs>
	<clipPath id="SVGID_2_">
		<use xlink:href="#SVGID_13_"  style="overflow:visible;"/>
	</clipPath>
	
		<linearGradient id="SVGID_3_" gradientUnits="userSpaceOnUse" x1="-1385.2961" y1="382.2084" x2="-1384.2961" y2="382.2084" gradientTransform="matrix(15.4397 12.3478 12.3478 -15.4397 16833.6035 23230.9922)">
		<stop  offset="0" style="stop-color:#E4E347"/>
		<stop  offset="0" style="stop-color:#5BA189"/>
		<stop  offset="1" style="stop-color:#A8C883"/>
	</linearGradient>
	<polygon class="st2" points="177,232.1 179.6,234.2 177.3,237.1 174.7,235 	"/>
</g>
<g>
	<polygon class="st0" points="55.9,224.2 62.5,224.1 62.7,249.9 56,256.7 51.9,252.7 51.9,255.5 45.3,256.8 45.3,252.8 41.2,256.8 
		34.4,250 34.3,224.3 40.9,224.2 41,248.8 45.2,244.1 45.1,228.8 43.1,224.2 51.7,224.2 51.8,244.1 56.1,248.7 	"/>
	<path class="st0" d="M93.9,225.1l10.8-0.1l0.2,32l-6.6,0l-0.1-9.8l-5.5-0.3l0,0l0.1,10.1l-6.6,0l-0.1-9.5l-2.4-5.5l2.4,0l-0.1-9.7
		c0-1.3,0.3-2.6,0.9-3.7c0.6-1.1,1.5-2,2.7-2.7C90.9,225.5,92.3,225.2,93.9,225.1 M92.7,242.1l5.5,0l-0.1-11.6l0,0
		c-0.6,0-1.2,0-1.7,0c-1.4,0-2.4,0.1-2.9,0.4c-0.6,0.3-1,1.3-0.9,3L92.7,242.1z"/>
	<polygon class="st0" points="134.7,224 141.2,223.9 141.4,255.9 134.9,256 134.8,239.8 130,233.6 130.1,256 123.7,256.1 123.5,224 
		129.8,224 129.9,224.1 134.7,230.3 	"/>
	<path class="st0" d="M169.9,224.7l10.8-0.1l0.2,32l-6.6,0l-0.1-9.8l-5.5-0.3h0l0.1,10.1l-6.6,0l-0.1-9.5l-2.5-5.5l2.4,0L162,232
		c0-1.3,0.3-2.6,0.9-3.7c0.6-1.1,1.5-2,2.7-2.7C166.8,225,168.2,224.7,169.9,224.7 M168.6,241.6l5.5,0l-0.1-11.6l0,0
		c-0.6,0-1.2,0-1.7,0c-1.4,0-2.4,0.1-2.9,0.4c-0.6,0.3-1,1.3-0.9,3L168.6,241.6z"/>
	<path class="st0" d="M214.9,256.4l-3.3-8.5c-1,0.7-2,1.4-2.8,1.9l0,6.6l-6.6,0l-0.2-32l6.6,0l0.1,18.1c1.3-1,2.9-2.2,4.7-3.8
		l-0.1-14.4l6.5,0l0.1,16.9c-0.8,0.8-1.7,1.6-2.8,2.4l4.8,12.7L214.9,256.4z"/>
	<path class="st0" d="M252.2,224.1L263,224l0.2,32l-6.6,0l-0.1-9.8L251,246h0l0.1,10.1l-6.6,0l-0.1-9.5l-2.5-5.5l2.4,0l-0.1-9.7
		c0-1.3,0.3-2.6,0.9-3.7c0.6-1.1,1.5-2,2.7-2.7C249.1,224.5,250.5,224.1,252.2,224.1 M251,241.1l5.5,0l-0.1-11.6l0,0
		c-0.6,0-1.2,0-1.7,0c-1.4,0-2.4,0.1-2.9,0.4c-0.6,0.3-1,1.3-0.9,3L251,241.1z"/>
</g>
<g>
	<defs>
		<path id="SVGID_16_" d="M259.4,191.1c-0.3-0.9-0.8-2-1.7-3.3L259.4,191.1z"/>
	</defs>
	<clipPath id="SVGID_5_">
		<use xlink:href="#SVGID_16_"  style="overflow:visible;"/>
	</clipPath>
	
		<linearGradient id="SVGID_6_" gradientUnits="userSpaceOnUse" x1="-1385.2961" y1="382.2084" x2="-1384.2961" y2="382.2084" gradientTransform="matrix(15.4397 12.3478 12.3478 -15.4397 16915.0508 23185.7734)">
		<stop  offset="0" style="stop-color:#E4E347"/>
		<stop  offset="0" style="stop-color:#5BA189"/>
		<stop  offset="1" style="stop-color:#A8C883"/>
	</linearGradient>
	<polygon class="st3" points="258.4,186.9 261.1,189 258.8,191.9 256.1,189.8 	"/>
</g>
<g>
	<g>
		<path class="st0" d="M261.7,38.3c0-1.7-0.3-3.4-0.5-5.1c-1.3-5.2-5.9-9.4-11.4-9.5c-14.5-0.1-29.1,0-43.6,0.3
			c-5.1,0.1-11,4.7-11.3,9.4c-0.9,10.6-1.5,21.2-1.4,31.9c-0.1,0.8-0.2,1.5-0.3,2.3c-2.7,13.8-5.3,27.5-9.9,40.9
			c1.1-0.6,2.1-1.2,3.1-1.8c0,0,0,0,0,0l0.2-0.2c0.4-0.3,0.9-0.6,1.3-0.9l0.4-0.3c0,0,38.9-21.8,50.6-59.5c1.6,0.3,1.1,2.1,1.1,3.3
			c0.2,5.5-1.2,10.8-3,15.9c-4.8,14.1-13.5,25.8-23.9,36.3c-10.7,10.8-21.8,21.1-32.3,32.2c-15.3,16.3-24.3,35.4-24.7,58.1
			c-0.1,4.8,1,5.9,4.8,4.3c20.5-8.4,37.6-22,53.9-36.6c1.4-1.3,2.8-2.7,3-5c0.5-5.4,1.3-10.7,1.6-16.1c0.8-12.5,4.1-24.3,10.3-35.1
			c3.6-6.3,7.2-9.6,11-10.9c-8.6,16.1-10.3,33.5-10.6,51.2c0,1.1-0.5,2.5,0.7,3.1c1.2,0.7,2.1-0.7,2.9-1.3c9-6.8,16.7-15,24.1-23.4
			c3-3.4,4.5-7.2,4.5-12C261.9,85.9,261.9,62.1,261.7,38.3"/>
	</g>
</g>
</svg>
