<?xml version="1.0" encoding="utf-8"?>
<!-- Generator: Adobe Illustrator 25.3.1, SVG Export Plug-In . SVG Version: 6.00 Build 0)  -->
<svg version="1.1" id="Layer_1" xmlns="http://www.w3.org/2000/svg" xmlns:xlink="http://www.w3.org/1999/xlink" x="0px" y="0px"
	 viewBox="0 0 27.4 27.4" style="enable-background:new 0 0 27.4 27.4;" xml:space="preserve">
<style type="text/css">
	.st0{fill:#1B75BC;}
	.st1{fill:#FFFFFF;}
</style>
<path class="st0" d="M24.4,0H3C1.3,0,0,1.3,0,3v21.4c0,1.7,1.3,3,3,3h21.4c1.7,0,3-1.3,3-3V3C27.4,1.3,26,0,24.4,0z"/>
<path class="st1" d="M24.9,12.9c0,0.2,0,0.5-0.1,0.7c-0.1,0.2-0.1,0.4-0.3,0.6c-0.1,0.2-0.3,0.4-0.4,0.5c-0.2,0.2-0.4,0.3-0.6,0.4
	c0,0.1,0,0.1,0,0.2c0,0.1,0,0.2,0,0.4c0,0.1,0,0.1,0,0.2c0,3.7-4.3,6.7-9.6,6.7s-9.6-3-9.6-6.7c0-0.1,0-0.1,0-0.2c0-0.1,0-0.2,0-0.4
	c0-0.1,0-0.1,0-0.2c-0.6-0.3-1.1-0.9-1.3-1.5c-0.2-0.7-0.1-1.4,0.3-2c0.4-0.6,1-1,1.7-1c0.7-0.1,1.4,0.2,1.9,0.6
	c0.5-0.3,1-0.6,1.5-0.9c0.5-0.2,1-0.5,1.6-0.6c0.5-0.2,1.1-0.3,1.7-0.4s1.1-0.1,1.7-0.1l1.2-5.7c0-0.1,0-0.1,0.1-0.2
	c0-0.1,0.1-0.1,0.1-0.1c0.1,0,0.1-0.1,0.2-0.1c0.1,0,0.1,0,0.2,0l4,0.8c0.4-0.7,1.3-1,2-0.7s1.2,1.1,1,1.9c-0.2,0.8-0.9,1.3-1.7,1.3
	c-0.8,0-1.5-0.7-1.6-1.5l-3.5-0.7l-1.1,5.1c0.6,0,1.1,0.1,1.7,0.2c1.1,0.2,2.2,0.5,3.2,1c0.5,0.2,1,0.5,1.5,0.8
	c0.3-0.3,0.8-0.5,1.2-0.6c0.5-0.1,0.9,0,1.4,0.1c0.4,0.2,0.8,0.5,1.1,0.8C24.7,12,24.9,12.4,24.9,12.9z M8.6,15.2
	c0.1,0.2,0.2,0.4,0.4,0.5c0.2,0.2,0.3,0.3,0.5,0.4c0.2,0.1,0.4,0.1,0.6,0.1c0.7,0,1.3-0.4,1.5-1c0.3-0.6,0.1-1.3-0.4-1.8
	s-1.2-0.6-1.8-0.4c-0.6,0.3-1,0.9-1,1.5C8.4,14.8,8.5,15,8.6,15.2z M18,19.1c0.1-0.1,0.1-0.2,0.1-0.3c0-0.1,0-0.2-0.1-0.3
	s-0.2-0.1-0.3-0.1c-0.1,0-0.2,0-0.3,0.1c-0.2,0.2-0.5,0.3-0.8,0.5c-0.3,0.1-0.6,0.2-0.8,0.3c-0.3,0.1-0.6,0.1-0.9,0.2
	c-0.3,0-0.6,0-0.9,0c-0.3,0-0.6,0-0.9,0c-0.3,0-0.6-0.1-0.9-0.2c-0.3-0.1-0.6-0.2-0.8-0.3c-0.3-0.1-0.5-0.3-0.8-0.5
	c-0.1-0.1-0.2-0.1-0.3-0.1c-0.1,0-0.2,0.1-0.3,0.1c-0.1,0.1-0.1,0.2-0.1,0.3s0,0.2,0.1,0.3c0.3,0.2,0.6,0.4,0.9,0.6
	c0.3,0.2,0.7,0.3,1,0.4c0.3,0.1,0.7,0.2,1.1,0.2c0.4,0,0.7,0.1,1.1,0c0.4,0,0.7,0,1.1,0c0.7-0.1,1.4-0.3,2.1-0.6
	C17.4,19.5,17.7,19.3,18,19.1L18,19.1z M17.7,16.3c0.2,0,0.4,0,0.6-0.1c0.2-0.1,0.4-0.2,0.5-0.4c0.2-0.2,0.3-0.3,0.4-0.6
	c0.1-0.2,0.1-0.4,0.1-0.7c0-0.7-0.4-1.3-1-1.5c-0.6-0.3-1.3-0.1-1.8,0.4c-0.5,0.5-0.6,1.2-0.4,1.8C16.4,15.9,17,16.3,17.7,16.3
	L17.7,16.3z"/>
</svg>
